<svg id="Layer_1" data-name="Layer 1" xmlns="http://www.w3.org/2000/svg" xmlns:xlink="http://www.w3.org/1999/xlink" viewBox="0 0 130.96 212.91"><defs><style>.cls-1{fill:#e6e6e6;}.cls-2{fill:#ccc;}.cls-3{fill:#0064bc;}.cls-4{fill:url(#New_Gradient_Swatch_1);}.cls-5{fill:#fff;opacity:0.2;}.cls-6{fill:url(#New_Gradient_Swatch_1-2);}.cls-7{fill:url(#New_Gradient_Swatch_1-3);}</style><radialGradient id="New_Gradient_Swatch_1" cx="46.71" cy="168.99" r="8.97" gradientUnits="userSpaceOnUse"><stop offset="0" stop-color="#0064bc"/><stop offset="0.36" stop-color="#0467bd" stop-opacity="0.99"/><stop offset="0.52" stop-color="#1171c1" stop-opacity="0.94"/><stop offset="0.65" stop-color="#2783c7" stop-opacity="0.85"/><stop offset="0.76" stop-color="#479dd0" stop-opacity="0.73"/><stop offset="0.85" stop-color="#6fbedc" stop-opacity="0.58"/><stop offset="0.89" stop-color="#86d0e2" stop-opacity="0.49"/><stop offset="0.95" stop-color="#84cee1" stop-opacity="0.49"/><stop offset="0.97" stop-color="#7dc6dd" stop-opacity="0.47"/><stop offset="0.99" stop-color="#71b9d6" stop-opacity="0.44"/><stop offset="1" stop-color="#62a9ce" stop-opacity="0.4"/></radialGradient><radialGradient id="New_Gradient_Swatch_1-2" cx="63.77" cy="180.05" r="4.49" xlink:href="#New_Gradient_Swatch_1"/><radialGradient id="New_Gradient_Swatch_1-3" cx="81.48" cy="161.97" r="5.89" xlink:href="#New_Gradient_Swatch_1"/></defs><title>Beaker</title><path class="cls-1" d="M349,222.81V145.52H290v77.29a65.48,65.48,0,1,0,59,0Z" transform="translate(-254.04 -134)"/><rect class="cls-1" x="22.86" width="82.91" height="13.49" rx="2.5" ry="2.5"/><path class="cls-2" d="M354.18,143.56H282.52a5.63,5.63,0,0,1-5.54-4.78,5.68,5.68,0,0,0-.09.84v2.25a5.64,5.64,0,0,0,5.63,5.62h71.66a5.64,5.64,0,0,0,5.62-5.62v-2.25a4.6,4.6,0,0,0-.09-.84A5.62,5.62,0,0,1,354.18,143.56Z" transform="translate(-254.04 -134)"/><path class="cls-2" d="M333.93,217.77a65.36,65.36,0,0,1-37.86,124.75,65.36,65.36,0,1,0,37.86-124.75Z" transform="translate(-254.04 -134)"/><path class="cls-3" d="M366.19,278.19a17.22,17.22,0,0,1-23.7-5.57,18.28,18.28,0,0,1-1.53-3.15,17.2,17.2,0,0,1-30.78,3.15,16.1,16.1,0,0,1-.93-1.73,17.46,17.46,0,0,1-2.06,3.35A17.22,17.22,0,0,1,283,277.06a16.93,16.93,0,0,1-2.24-2.15,17.23,17.23,0,0,1-15.09,5.72c-.06,1-.1,2.07-.1,3.12a52.77,52.77,0,1,0,104.73-9.13A17.13,17.13,0,0,1,366.19,278.19Z" transform="translate(-254.04 -134)"/><circle class="cls-4" cx="46.71" cy="168.99" r="8.97"/><circle class="cls-3" cx="44.72" cy="113.68" r="8.97"/><path class="cls-5" d="M292,247.68a9,9,0,0,1,7.85-8.86,8.48,8.48,0,0,0-1.13-.11,9,9,0,1,0,0,17.94,8.48,8.48,0,0,0,1.13-.11A9,9,0,0,1,292,247.68Z" transform="translate(-254.04 -134)"/><circle class="cls-3" cx="64.83" cy="127.14" r="4.49"/><path class="cls-5" d="M315.51,261.14a4.46,4.46,0,0,1,3.92-4.43,5,5,0,0,0-.56-.06,4.49,4.49,0,0,0,0,9,5,5,0,0,0,.56-.06A4.47,4.47,0,0,1,315.51,261.14Z" transform="translate(-254.04 -134)"/><circle class="cls-3" cx="60.35" cy="88.68" r="4.91"/><path class="cls-5" d="M310.71,222.68a4.89,4.89,0,0,1,4.29-4.85,4.2,4.2,0,0,0-.62-.06,4.91,4.91,0,0,0,0,9.81,4.2,4.2,0,0,0,.62-.06A4.88,4.88,0,0,1,310.71,222.68Z" transform="translate(-254.04 -134)"/><circle class="cls-3" cx="66.85" cy="46.85" r="6.5"/><path class="cls-5" d="M316,180.85a6.49,6.49,0,0,1,5.69-6.42,7.17,7.17,0,0,0-.81-.08,6.51,6.51,0,1,0,0,13,5.43,5.43,0,0,0,.81-.09A6.48,6.48,0,0,1,316,180.85Z" transform="translate(-254.04 -134)"/><circle class="cls-3" cx="52.72" cy="67.33" r="5.48"/><path class="cls-5" d="M302.65,201.33a5.47,5.47,0,0,1,4.79-5.41,5.05,5.05,0,0,0-.68-.07,5.48,5.48,0,0,0,0,11,5.05,5.05,0,0,0,.68-.07A5.47,5.47,0,0,1,302.65,201.33Z" transform="translate(-254.04 -134)"/><circle class="cls-6" cx="63.77" cy="180.05" r="4.49"/><circle class="cls-7" cx="81.48" cy="161.97" r="5.89"/></svg>