<svg id="Layer_1" data-name="Layer 1" xmlns="http://www.w3.org/2000/svg" viewBox="0 0 418.53 347.84"><defs><style>.cls-1{fill:#ff8b22;}.cls-2{fill:#4d4d4d;}</style></defs><title>CatalystLogo</title><polygon class="cls-1" points="403.81 163.64 278.4 163.64 278.4 99.14 238.98 139.75 210.31 0 168.51 152.89 70.56 76.44 112.37 176.72 63.4 166.03 101.62 222.17 45.48 250.84 140.44 250.84 163.74 238.94 147.87 215.64 168.2 220.08 150.85 178.46 191.5 210.19 208.84 146.74 220.74 204.74 237.1 187.88 237.1 214.65 289.15 214.65 252.47 244.89 267.8 250.68 353.39 250.84 315.43 236.5 403.81 163.64"/><path class="cls-2" d="M584.57,585.46l8.17,2.5q-2.72,12.62-9.47,18.82A23.51,23.51,0,0,1,566.8,613a25.1,25.1,0,0,1-14.57-4.16q-6.06-4.17-9.91-13.36t-3.85-21.72q0-12.36,3.85-20.92a29.59,29.59,0,0,1,10.46-12.92,26.06,26.06,0,0,1,14.71-4.37,22.55,22.55,0,0,1,15.28,5.53q6.39,5.52,8.94,16.22l-8,2.3Q579.66,544,567.34,544a18.05,18.05,0,0,0-10.63,3.14c-3,2.09-5.4,5.36-7.19,9.78s-2.68,10-2.68,16.81q0,15.39,5.41,23.07t14.4,7.69a15.83,15.83,0,0,0,11.46-4.72Q582.94,595.06,584.57,585.46Z" transform="translate(-538.47 -265.14)"/><path class="cls-2" d="M596.16,611.7l23.67-74.84h8.68l25.13,74.84h-9.29L637.21,589H611.39l-6.67,22.67ZM613.77,581h20.9l-6.38-20.73q-3-9.54-4.33-15.52a111,111,0,0,1-3.37,14.3Z" transform="translate(-538.47 -265.14)"/><path class="cls-2" d="M669.52,611.7v-66H649.3v-8.83H698v8.83H677.64v66Z" transform="translate(-538.47 -265.14)"/><path class="cls-2" d="M693.16,611.7l23.67-74.84h8.68l25.13,74.84h-9.29L734.21,589H708.39l-6.67,22.67ZM710.77,581h20.9l-6.38-20.73q-3-9.54-4.33-15.52a111,111,0,0,1-3.37,14.3Z" transform="translate(-538.47 -265.14)"/><path class="cls-2" d="M756.57,611.7V536.86h8.11v66h30.23v8.83Z" transform="translate(-538.47 -265.14)"/><path class="cls-2" d="M815.74,611.7V580L792.1,536.86H802l12.05,22.59q3.57,6.69,6.28,12.67,2.71-5.88,6.7-13.23l11.92-22h9.39L823.85,580v31.7Z" transform="translate(-538.47 -265.14)"/><path class="cls-2" d="M852.9,587.61l7.66-.82a22.38,22.38,0,0,0,2.78,9.62,15.61,15.61,0,0,0,6.21,5.54,19.32,19.32,0,0,0,9.08,2.09q7.26,0,11.26-3.54a11.69,11.69,0,0,0,4-9.19,11.15,11.15,0,0,0-1.46-5.78,10.88,10.88,0,0,0-4.39-4q-2.92-1.59-12.68-4.47-8.68-2.58-12.36-5.18a18,18,0,0,1-5.72-6.61,19.68,19.68,0,0,1-2-9.06q0-9.09,5.87-14.86T877,535.53a25.22,25.22,0,0,1,12,2.71,19.23,19.23,0,0,1,8,7.76,25.55,25.55,0,0,1,3,11.89l-7.81.72q-.61-7.3-4.36-10.83t-10.55-3.52q-6.88,0-10.51,3.09a10,10,0,0,0-3.63,8,9.19,9.19,0,0,0,2.66,7q2.65,2.5,11.94,5.07a78.06,78.06,0,0,1,12.76,4.36,19.56,19.56,0,0,1,11.34,18.68,23.17,23.17,0,0,1-3,11.7,20.18,20.18,0,0,1-8.2,8A26.2,26.2,0,0,1,878.07,613q-11.39,0-18.15-6.84T852.9,587.61Z" transform="translate(-538.47 -265.14)"/><path class="cls-2" d="M928.56,611.7v-66H908.35v-8.83H957v8.83H936.68v66Z" transform="translate(-538.47 -265.14)"/></svg>