<svg id="Layer_1" data-name="Layer 1" xmlns="http://www.w3.org/2000/svg" viewBox="0 0 676.12 480.3"><defs><style>.cls-1{fill:#f2f2f2;}.cls-2{fill:#c1272d;}.cls-3{fill:#f7931e;}.cls-4{fill:#e6e6e6;}.cls-5{fill:#f15a24;}.cls-6{fill:#86d0e2;}.cls-7{fill:#009bbc;}.cls-8{fill:none;stroke:#000;stroke-miterlimit:10;}.cls-9{fill:#fff;}.cls-10{fill:#e15b24;}</style></defs><title>spaceship_New</title><path class="cls-1" d="M931.21,586.41,962.92,553l19.94-9,15.7-6.37s49,3.84,141.14-57.69C1257.39,401.37,1296,259.74,1296,259.74s-148.47-23-266.16,55.61C932.61,380.23,925,420.81,925,420.81L899,450.73l-41.09,17.95Z" transform="translate(-619.83 -256.45)"/><polyline class="cls-1" points="352.9 102.97 293.1 77.06 259.01 134.91 305.19 164.37"/><polygon class="cls-2" points="293.1 77.06 267.6 65.31 198.81 188.72 228.07 183.07 259.01 134.91 293.1 77.06"/><polygon class="cls-3" points="242.99 221.19 203.56 234.61 225.24 247.75 79.12 361.98 170.4 336.3 0 480.3 225 367.2 228.3 380.06 306.29 322.87 242.99 221.19"/><path class="cls-4" d="M999.48,537.22s15.74-.58,47.48-9.43c8.44-2.35,17.75-6.4,28.25-10.58,6.41-2.55,13.3-4.68,20.61-7.86,13.7-6,29.4-12.21,45.61-23C1259.32,408.29,1296,259.75,1296,259.74L892,523.38l38.62,62L962.93,552Z" transform="translate(-619.83 -256.45)"/><polygon class="cls-1" points="378.69 281.52 398.1 342.74 460.47 326.9 455.39 260.76 378.69 281.52"/><path class="cls-5" d="M1265.77,338C1288,294.72,1296,259.74,1296,259.74s-33.49-5.55-80.72-2.24Z" transform="translate(-619.83 -256.45)"/><polygon class="cls-2" points="465.53 354.34 460.53 327 345.73 349.93 327.03 372.42 465.53 354.34"/><circle class="cls-6" cx="461.23" cy="139.71" r="45.51"/><circle class="cls-6" cx="559.16" cy="77.9" r="31.07"/><path class="cls-7" d="M1152.71,350.93a31.07,31.07,0,0,0,42.86,9.69l-33.18-52.55A31.07,31.07,0,0,0,1152.71,350.93Z" transform="translate(-619.83 -256.45)"/><path class="cls-8" d="M1195.57,360.62a31.07,31.07,0,1,1,9.69-42.87A31.07,31.07,0,0,1,1195.57,360.62Z" transform="translate(-619.83 -256.45)"/><polygon class="cls-5" points="343.49 296.21 279.13 194.29 293.76 177.5 363.46 287.87 343.49 296.21"/><polygon class="cls-5" points="378.75 281.62 305.19 164.37 353.25 102.16 455.39 260.76 378.75 281.62"/><circle class="cls-9" cx="358.14" cy="151.37" r="14.13"/><circle class="cls-9" cx="348.99" cy="187.1" r="7.06"/><path class="cls-7" d="M1042.58,420.45a45.51,45.51,0,0,0,62.77,14.19l-48.59-77A45.5,45.5,0,0,0,1042.58,420.45Z" transform="translate(-619.83 -256.45)"/><path class="cls-8" d="M1105.35,434.64a45.51,45.51,0,1,1,14.19-62.78A45.51,45.51,0,0,1,1105.35,434.64Z" transform="translate(-619.83 -256.45)"/><polygon class="cls-10" points="405.19 182.92 341.92 222.87 379.87 282.44 455.39 260.76 405.19 182.92"/></svg>