<svg id="Layer_1" data-name="Layer 1" xmlns="http://www.w3.org/2000/svg" viewBox="0 0 213.82 166.98"><defs><style>.cls-1{fill:#666;}.cls-2{fill:#999;}.cls-3{fill:#86d0e2;}.cls-10,.cls-14,.cls-4{fill:none;stroke-miterlimit:10;}.cls-4{stroke:#0084bc;stroke-width:4px;}.cls-5{fill:#0084bc;}.cls-6{fill:#b3b3b3;}.cls-7{fill:#e6e6e6;opacity:0.5;}.cls-8{fill:#fbce5d;}.cls-9{fill:#fbc25d;}.cls-10{stroke:#4d4d4d;stroke-width:3px;}.cls-11{fill:#ccc;}.cls-12{fill:lime;}.cls-13{fill:#c1272d;}.cls-14{stroke:#8cc63f;stroke-width:0.05px;}</style></defs><title>SpaceStation</title><rect class="cls-1" x="67" y="74.59" width="79.2" height="8.19"/><rect class="cls-2" x="67" y="74.43" width="79.2" height="4.1"/><path class="cls-3" d="M913.81,553.59H860.47a5.48,5.48,0,0,1-5.46-5.46V521.3l5.46-5.46h53.34a5.47,5.47,0,0,1,5.46,5.46v26.83Z" transform="translate(-853.01 -456.55)"/><path class="cls-4" d="M913.81,553.59H860.47a5.48,5.48,0,0,1-5.46-5.46V521.3l5.46-5.46h53.34a5.47,5.47,0,0,1,5.46,5.46v26.83Z" transform="translate(-853.01 -456.55)"/><rect class="cls-5" x="10.88" y="59.29" width="2.74" height="37.05"/><rect class="cls-5" x="22.07" y="59.64" width="2.74" height="37.05"/><rect class="cls-5" x="33.68" y="59.64" width="2.74" height="37.05"/><rect class="cls-5" x="44.7" y="59.64" width="2.74" height="37.05"/><rect class="cls-5" x="55.82" y="59.64" width="2.74" height="37.05"/><rect class="cls-5" x="885.74" y="492.62" width="2.74" height="63.46" transform="translate(-490.26 954.91) rotate(-90)"/><rect class="cls-5" x="885.32" y="503.44" width="2.74" height="63.46" transform="translate(-501.49 965.3) rotate(-90)"/><rect class="cls-5" x="885.77" y="512.92" width="2.74" height="63.46" transform="translate(-510.52 975.24) rotate(-90)"/><path class="cls-3" d="M1059.36,553.59H1006a5.48,5.48,0,0,1-5.46-5.46V521.3l5.46-5.46h53.34a5.48,5.48,0,0,1,5.47,5.46v26.83Z" transform="translate(-853.01 -456.55)"/><path class="cls-4" d="M1059.36,553.59H1006a5.48,5.48,0,0,1-5.46-5.46V521.3l5.46-5.46h53.34a5.48,5.48,0,0,1,5.47,5.46v26.83Z" transform="translate(-853.01 -456.55)"/><rect class="cls-5" x="156.43" y="59.29" width="2.74" height="37.05"/><rect class="cls-5" x="167.62" y="59.64" width="2.74" height="37.05"/><rect class="cls-5" x="174.61" y="59.29" width="2.74" height="37.05"/><rect class="cls-5" x="185.63" y="59.29" width="2.74" height="37.05"/><rect class="cls-5" x="196.75" y="59.29" width="2.74" height="37.05"/><rect class="cls-5" x="1031.29" y="492.62" width="2.74" height="63.46" transform="translate(-344.71 1100.46) rotate(-90)"/><rect class="cls-5" x="1030.87" y="503.44" width="2.74" height="63.46" transform="translate(-355.94 1110.85) rotate(-90)"/><rect class="cls-5" x="1031.32" y="512.92" width="2.74" height="63.46" transform="translate(-364.97 1120.79) rotate(-90)"/><polygon class="cls-6" points="120.05 83.27 94.71 83.27 91.46 76.49 91.46 42.09 96.29 35.87 119.39 35.87 123.3 42.09 123.3 76.49 120.05 83.27"/><polygon class="cls-2" points="119.39 35.94 109.53 35.94 113.44 42.16 113.44 76.57 110.19 83.34 120.05 83.34 123.3 76.57 123.3 42.16 119.39 35.94"/><rect class="cls-7" x="96.63" y="44.52" width="1.82" height="12.52"/><rect class="cls-7" x="99.93" y="42.13" width="1.82" height="12.52"/><rect class="cls-6" x="99.93" y="29.74" width="15.51" height="6.21"/><rect class="cls-6" x="103.01" y="8.5" width="1.21" height="21.24"/><polygon class="cls-6" points="127.11 116.1 84.56 116.1 79.09 107.4 79.09 63.21 84.56 54.52 127.11 54.52 132.58 63.21 132.58 107.4 127.11 116.1"/><rect class="cls-6" x="106.6" width="2.94" height="32.84"/><polygon class="cls-2" points="127.05 54.52 114.09 54.52 119.56 63.21 119.56 107.4 114.09 116.1 127.05 116.1 132.51 107.4 132.51 63.21 127.05 54.52"/><rect class="cls-8" x="88.82" y="59.64" width="16.5" height="8.86"/><rect class="cls-7" x="87.23" y="54.73" width="4.08" height="61.5"/><rect class="cls-9" x="96.92" y="59.64" width="7.85" height="8.86"/><path class="cls-10" d="M958.33,525.05h-16.5v-8.86h16.5Z" transform="translate(-853.01 -456.55)"/><rect class="cls-6" x="101.16" y="114.55" width="9.35" height="20.63"/><rect class="cls-6" x="956.44" y="586.35" width="3.88" height="31.07" transform="translate(-847.54 -465.16) rotate(0.52)"/><polygon class="cls-11" points="105.34 165.81 105.62 134.74 103.51 134.72 103.23 165.79 107.1 165.83 107.1 165.83 105.34 165.81"/><rect class="cls-12" x="109.21" y="60.28" width="2.59" height="2.59"/><rect class="cls-13" x="109.21" y="63.62" width="2.59" height="2.59"/><path class="cls-14" d="M966.86,517.28h-2.59v-2.59h2.59Z" transform="translate(-853.01 -456.55)"/><circle class="cls-6" cx="105.37" cy="161.25" r="5.73"/><path class="cls-11" d="M954,617.8a6.24,6.24,0,0,1,3.67-5.68,5.73,5.73,0,0,0,0,11.36A6.24,6.24,0,0,1,954,617.8Z" transform="translate(-853.01 -456.55)"/><rect class="cls-7" x="100.96" y="116.1" width="4.08" height="14.27"/><path class="cls-6" d="M1008,596.85c-.69-10.47-22.07-18.87-48.37-18.87s-47.69,8.4-48.38,18.87Z" transform="translate(-853.01 -456.55)"/><path class="cls-11" d="M962.84,578c-1.08,0-2.16,0-3.25,0-26.3,0-47.69,8.4-48.38,18.87h6.5C918.37,586.82,938.05,578.69,962.84,578Z" transform="translate(-853.01 -456.55)"/><path class="cls-2" d="M962.14,578c-1,0-2,0-3,0,24.9.61,44.7,8.77,45.36,18.83h6C1009.82,586.38,988.44,578,962.14,578Z" transform="translate(-853.01 -456.55)"/></svg>