<svg id="Layer_1" data-name="Layer 1" xmlns="http://www.w3.org/2000/svg" viewBox="0 0 93.45 75.25"><defs><style>.cls-1{fill:gray;}.cls-2{fill:#8cc63f;}.cls-3{fill:#666;}.cls-4{fill:#29abe2;}.cls-5{fill:#c1272d;}.cls-6{fill:#0071bc;}.cls-7,.cls-9{fill:#fff;}.cls-7{opacity:0.5;}.cls-8{fill:#39b54a;}.cls-9{opacity:0.25;}.cls-10{fill:#fbb03b;stroke:#c1272d;stroke-miterlimit:10;}</style></defs><title>UFO</title><rect class="cls-1" x="978.29" y="562.12" width="5.08" height="8.5" transform="translate(-1062.07 -14.38) rotate(-26.07)"/><rect class="cls-1" x="954.18" y="564.62" width="5.08" height="8.5" transform="translate(-846.11 -602.78) rotate(6.18)"/><rect class="cls-1" x="930.49" y="559.37" width="5.08" height="8.5" transform="translate(-538.11 -875.71) rotate(28.06)"/><path class="cls-2" d="M1006.33,546.47c-.47,13.11-24.2,19.52-46.14,18.73S912.49,555,913,541.85s23.81-13.94,45.74-13.15S1006.8,533.36,1006.33,546.47Z" transform="translate(-912.96 -503.03)"/><rect class="cls-3" x="960.28" y="509.3" width="0.88" height="4.14" transform="translate(-883.87 -554.28) rotate(3.1)"/><path class="cls-4" d="M981.65,527.41c1.63,4.58,4.42,11.24,3.15,13.92-1.13,2.4-7.52,4.88-14.38,5.93-7.55,1.15-15.65.72-17.47.27a63.49,63.49,0,0,1-10.58-3.06c-4.34-1.86-8.22-4.76-8.28-8.13-.07-3.83,2.59-12.19,9.13-17.42,3.15-2.51,12.88-6.73,20.45-5.44C973,515.07,980,522.76,981.65,527.41Z" transform="translate(-912.96 -503.03)"/><ellipse class="cls-5" cx="929.76" cy="567.02" rx="2.88" ry="7.73" transform="translate(-599.7 961.7) rotate(-86.9)"/><ellipse class="cls-5" cx="956.67" cy="575.38" rx="2.88" ry="7.73" transform="translate(-582.6 996.47) rotate(-86.9)"/><ellipse class="cls-5" cx="985.09" cy="570.54" rx="2.88" ry="7.73" transform="translate(-550.89 1020.27) rotate(-86.9)"/><rect class="cls-5" x="957.22" y="503.03" width="7.34" height="7.34" rx="3.67" ry="3.67" transform="translate(-1027.4 -150.34) rotate(-19.65)"/><path class="cls-6" d="M963.67,513.48a15.91,15.91,0,0,0-2.09-.2c3.61,1.24,11.63,5.27,15.62,10.81a13.26,13.26,0,0,1,.49,14.75c-2.71,4.48-9.47,6.74-13,7.27a71,71,0,0,1-15.74.52c1.26.28,2.59.54,4,.9,1.82.45,9.92.88,17.47-.27,6.86-1,13.25-3.53,14.38-5.93,1.27-2.68-.94-9.21-2.57-13.79a19.18,19.18,0,0,0-5.21-7.33A27.61,27.61,0,0,0,963.67,513.48Z" transform="translate(-912.96 -503.03)"/><path class="cls-7" d="M946.12,521.45a15.21,15.21,0,0,1,5.14-2.76c5-1.88,11.91-2.55,12.25-2.85.68-.6-6.59-.46-11.83.62a10.26,10.26,0,0,0-2.86.91,21.16,21.16,0,0,0-3.18,1.88,29.06,29.06,0,0,0-4.24,4.11c-3.74,4.71-5.66,10.08-5.61,12.79C935.83,538,939.63,526.63,946.12,521.45Z" transform="translate(-912.96 -503.03)"/><path class="cls-8" d="M961,559.33c-20.78-.75-45-9.28-47.08-21.32a9.47,9.47,0,0,0-.93,3.82c-.47,13.11,25.29,22.56,47.23,23.35s45.66-5.63,46.14-18.73a9.13,9.13,0,0,0-.15-1.91C1001.67,555,980.65,560,961,559.33Z" transform="translate(-912.96 -503.03)"/><path class="cls-8" d="M961,559.33c-20.78-.75-45-9.28-47.08-21.32a9.47,9.47,0,0,0-.93,3.82c-.47,13.11,25.29,22.56,47.23,23.35s45.66-5.63,46.14-18.73a9.13,9.13,0,0,0-.15-1.91C1001.67,555,980.65,560,961,559.33Z" transform="translate(-912.96 -503.03)"/><path class="cls-9" d="M998.24,550.64a71.1,71.1,0,0,1-15,5.42c-7.57,1.76-17.15,1.57-22.54,1.37-13-.47-29.2-6.73-38.69-12.36-.22-.13-.07-.41-1.82.33,2.81,2.72,6.43,4.47,10.82,6.26,8.53,3.49,18.74,6.48,29.43,6.87,14.44.52,29.92-1.75,38.76-7.33l-.3-.24Z" transform="translate(-912.96 -503.03)"/><circle class="cls-10" cx="12.66" cy="33.9" r="2.9"/><circle class="cls-10" cx="23.79" cy="44.53" r="2.9"/><circle class="cls-10" cx="43.87" cy="50.2" r="2.9"/><circle class="cls-10" cx="63.15" cy="50.12" r="2.9"/><circle class="cls-10" cx="78.83" cy="40.8" r="2.9"/></svg>